<svg width="512" height="512" viewBox="0 0 512 512" fill="none" xmlns="http://www.w3.org/2000/svg">
<g id="launchpad 2">
<path id="Vector" d="M508 477.5H4C1.791 477.5 0 475.709 0 473.5V38.5C0 36.291 1.791 34.5 4 34.5H508C510.209 34.5 512 36.291 512 38.5V473.5C512 475.709 510.209 477.5 508 477.5Z" fill="#464646"/>
<path id="Vector_2" d="M508 477.5H481.095V34.5H508C510.209 34.5 512 36.291 512 38.5V473.5C512 475.709 510.209 477.5 508 477.5Z" fill="#353535"/>
<path id="Vector_3" d="M30.905 442.593V69.407C30.905 67.198 32.696 65.407 34.905 65.407H477.094C479.303 65.407 481.094 67.198 481.094 69.407V442.593C481.094 444.802 479.303 446.593 477.094 446.593H34.905C32.696 446.593 30.905 444.802 30.905 442.593Z" fill="#595959"/>
<g id="Group">
<path id="Vector_4" d="M104.83 123.349C113.114 123.349 119.829 116.634 119.829 108.35C119.829 100.066 113.114 93.351 104.83 93.351C96.5463 93.351 89.8311 100.066 89.8311 108.35C89.8311 116.634 96.5463 123.349 104.83 123.349Z" fill="#FFDEA9"/>
<path id="Vector_5" d="M204.16 123.349C212.444 123.349 219.159 116.634 219.159 108.35C219.159 100.066 212.444 93.351 204.16 93.351C195.876 93.351 189.161 100.066 189.161 108.35C189.161 116.634 195.876 123.349 204.16 123.349Z" fill="#FFDEA9"/>
<path id="Vector_6" d="M303.94 123.349C312.224 123.349 318.939 116.634 318.939 108.35C318.939 100.066 312.224 93.351 303.94 93.351C295.656 93.351 288.941 100.066 288.941 108.35C288.941 116.634 295.656 123.349 303.94 123.349Z" fill="#FFDEA9"/>
<path id="Vector_7" d="M403.69 123.349C411.974 123.349 418.689 116.634 418.689 108.35C418.689 100.066 411.974 93.351 403.69 93.351C395.406 93.351 388.691 100.066 388.691 108.35C388.691 116.634 395.406 123.349 403.69 123.349Z" fill="#FFDEA9"/>
</g>
<path id="square2" d="M74.4441 213.211V159.397C74.4441 157.188 76.2351 155.397 78.4441 155.397H132.255C134.464 155.397 136.255 157.188 136.255 159.397V213.211C136.255 215.42 134.464 217.211 132.255 217.211H78.4441C76.2341 217.211 74.4441 215.42 74.4441 213.211Z" fill="#FF803C"/>
<g id="Group_2">
<path id="Vector_8" d="M173.548 213.211V159.397C173.548 157.188 175.339 155.397 177.548 155.397H231.359C233.568 155.397 235.359 157.188 235.359 159.397V213.211C235.359 215.42 233.568 217.211 231.359 217.211H177.548C175.339 217.211 173.548 215.42 173.548 213.211Z" fill="#FFDEA9"/>
<path id="Vector_9" d="M273.167 213.211V159.397C273.167 157.188 274.958 155.397 277.167 155.397H330.978C333.187 155.397 334.978 157.188 334.978 159.397V213.211C334.978 215.42 333.187 217.211 330.978 217.211H277.167C274.958 217.211 273.167 215.42 273.167 213.211Z" fill="#FFDEA9"/>
<path id="Vector_10" d="M372.787 213.211V159.397C372.787 157.188 374.578 155.397 376.787 155.397H430.598C432.807 155.397 434.598 157.188 434.598 159.397V213.211C434.598 215.42 432.807 217.211 430.598 217.211H376.787C374.578 217.211 372.787 215.42 372.787 213.211Z" fill="#FFDEA9"/>
<path id="Vector_11" d="M74.4441 311.801V257.987C74.4441 255.778 76.2351 253.987 78.4441 253.987H132.255C134.464 253.987 136.255 255.778 136.255 257.987V311.801C136.255 314.01 134.464 315.801 132.255 315.801H78.4441C76.2341 315.801 74.4441 314.01 74.4441 311.801Z" fill="#FFDEA9"/>
<path id="square1" d="M173.548 311.801V257.987C173.548 255.778 175.339 253.987 177.548 253.987H231.359C233.568 253.987 235.359 255.778 235.359 257.987V311.801C235.359 314.01 233.568 315.801 231.359 315.801H177.548C175.339 315.801 173.548 314.01 173.548 311.801Z" fill="#FFDEA9"/>
</g>
<path id="Vector_12" d="M273.167 311.801V257.987C273.167 255.778 274.958 253.987 277.167 253.987H330.978C333.187 253.987 334.978 255.778 334.978 257.987V311.801C334.978 314.01 333.187 315.801 330.978 315.801H277.167C274.958 315.801 273.167 314.01 273.167 311.801Z" fill="#FFCE55"/>
<path id="Vector_13" d="M372.787 311.801V257.987C372.787 255.778 374.578 253.987 376.787 253.987H430.598C432.807 253.987 434.598 255.778 434.598 257.987V311.801C434.598 314.01 432.807 315.801 430.598 315.801H376.787C374.578 315.801 372.787 314.01 372.787 311.801Z" fill="#FF803C"/>
<path id="Vector_14" d="M74.4441 410.391V356.577C74.4441 354.368 76.2351 352.577 78.4441 352.577H132.255C134.464 352.577 136.255 354.368 136.255 356.577V410.391C136.255 412.6 134.464 414.391 132.255 414.391H78.4441C76.2341 414.391 74.4441 412.601 74.4441 410.391Z" fill="#FFCE55"/>
<g id="Group_3">
<path id="Vector_15" d="M173.548 410.391V356.577C173.548 354.368 175.339 352.577 177.548 352.577H231.359C233.568 352.577 235.359 354.368 235.359 356.577V410.391C235.359 412.6 233.568 414.391 231.359 414.391H177.548C175.339 414.391 173.548 412.601 173.548 410.391Z" fill="#FFDEA9"/>
<path id="Vector_16" d="M273.167 410.391V356.577C273.167 354.368 274.958 352.577 277.167 352.577H330.978C333.187 352.577 334.978 354.368 334.978 356.577V410.391C334.978 412.6 333.187 414.391 330.978 414.391H277.167C274.958 414.391 273.167 412.601 273.167 410.391Z" fill="#FFDEA9"/>
<path id="square3" d="M372.787 410.391V356.577C372.787 354.368 374.578 352.577 376.787 352.577H430.598C432.807 352.577 434.598 354.368 434.598 356.577V410.391C434.598 412.6 432.807 414.391 430.598 414.391H376.787C374.578 414.391 372.787 412.601 372.787 410.391Z" fill="#FFDEA9"/>
</g>
</g>
</svg>
