<svg width="470" height="470" viewBox="0 0 470 470" fill="none" xmlns="http://www.w3.org/2000/svg">
<g id="landscape 1" clip-path="url(#clip0)">
<g id="Group">
<path id="Vector" d="M7.5 369.797H462.5C465.18 369.797 467.655 368.367 468.995 366.047C470.335 363.727 470.335 360.867 468.995 358.547L330.822 119.225C329.482 116.905 327.007 115.475 324.327 115.475C321.647 115.475 319.172 116.905 317.832 119.225L245.825 243.944C243.754 247.531 244.983 252.118 248.57 254.189C252.158 256.26 256.745 255.031 258.815 251.444L274.934 223.525L294.034 237.656C296.684 239.617 300.305 239.617 302.956 237.656L324.324 221.846L345.695 237.656C347.02 238.636 348.589 239.127 350.156 239.127C351.723 239.127 353.292 238.637 354.617 237.656L373.719 223.524L449.51 354.797H20.49L96.281 223.524L115.381 237.655C118.031 239.616 121.652 239.616 124.303 237.655L145.67 221.845L167.041 237.655C168.366 238.635 169.935 239.126 171.502 239.126C173.069 239.126 174.638 238.636 175.963 237.655L195.065 223.523L260.03 336.046C262.1 339.634 266.69 340.863 270.275 338.791C273.862 336.72 275.091 332.133 273.02 328.546L152.168 119.225C150.828 116.905 148.353 115.475 145.673 115.475C142.993 115.475 140.518 116.905 139.178 119.225L1.005 358.547C-0.335 360.867 -0.335 363.727 1.005 366.047C2.345 368.367 4.82 369.797 7.5 369.797ZM350.156 222.297L328.785 206.486C326.133 204.525 322.514 204.525 319.863 206.486L298.495 222.296L282.483 210.449L324.327 137.974L366.17 210.449L350.156 222.297ZM145.673 137.975L187.517 210.45L171.503 222.298L150.132 206.487C147.48 204.526 143.861 204.526 141.21 206.487L119.843 222.297L103.83 210.45L145.673 137.975Z" fill="#8C8C8C"/>
<path id="wave7" d="M432.5 429.797C436.643 429.797 440 426.439 440 422.297C440 418.155 436.643 414.797 432.5 414.797H367.859C363.716 414.797 360.359 418.155 360.359 422.297C360.359 426.439 363.716 429.797 367.859 429.797H432.5Z" fill="#4C5359"/>
<path id="wave6" d="M30 422.297C30 426.439 33.357 429.797 37.5 429.797H337.859C342.002 429.797 345.359 426.439 345.359 422.297C345.359 418.155 342.002 414.797 337.859 414.797H37.5C33.357 414.797 30 418.155 30 422.297Z" fill="#4C5359"/>
<path id="wave5" d="M462.5 444.797H320.538C316.395 444.797 313.038 448.155 313.038 452.297C313.038 456.439 316.395 459.797 320.538 459.797H462.5C466.643 459.797 470 456.439 470 452.297C470 448.155 466.643 444.797 462.5 444.797Z" fill="#4C5359"/>
<path id="wave4" d="M290.538 444.797H119.462C115.319 444.797 111.962 448.155 111.962 452.297C111.962 456.439 115.319 459.797 119.462 459.797H290.538C294.681 459.797 298.038 456.439 298.038 452.297C298.038 448.155 294.681 444.797 290.538 444.797Z" fill="#4C5359"/>
<path id="wave3" d="M89.462 444.797H7.5C3.357 444.797 0 448.155 0 452.297C0 456.439 3.357 459.797 7.5 459.797H89.462C93.605 459.797 96.962 456.439 96.962 452.297C96.962 448.155 93.604 444.797 89.462 444.797Z" fill="#4C5359"/>
<path id="wave2" d="M462.5 384.797H84.8199C80.6769 384.797 77.3199 388.155 77.3199 392.297C77.3199 396.439 80.6769 399.797 84.8199 399.797H462.5C466.643 399.797 470 396.439 470 392.297C470 388.155 466.643 384.797 462.5 384.797Z" fill="#4C5359"/>
<path id="wave1" d="M7.5 399.797H54.82C58.963 399.797 62.32 396.439 62.32 392.297C62.32 388.155 58.963 384.797 54.82 384.797H7.5C3.357 384.797 0 388.155 0 392.297C0 396.439 3.357 399.797 7.5 399.797Z" fill="#4C5359"/>
<path id="sun" d="M235 136.996C269.957 136.996 298.396 108.557 298.396 73.6C298.396 38.643 269.957 10.203 235 10.203C200.043 10.203 171.604 38.642 171.604 73.599C171.604 108.556 200.043 136.996 235 136.996ZM235 25.203C261.686 25.203 283.396 46.913 283.396 73.599C283.396 100.285 261.686 121.996 235 121.996C208.314 121.996 186.604 100.286 186.604 73.6C186.604 46.914 208.314 25.203 235 25.203Z" fill="#FFDEA9"/>
</g>
</g>
<defs>
<clipPath id="clip0">
<rect width="470" height="470" fill="white"/>
</clipPath>
</defs>
</svg>
